# xmcd CD database file
# Copyright (C) 1997 Ti Kan
# 
# Track frame offsets:
#     182
#     13005
#     49837
#     59240
#     70045
#     82850
#     99987
#     114315
# 
# Disc length: 1934 seconds
# 
# Revision: 1
# Processed by: cddbd v1.4b41PL1 Copyright (c) Steve Scherf et al.
# Submitted via: DiscPlay 4.0.3
# 
DISCID=60078c08
DTITLE=Buddy Emmons - Steel Guitar
DYEAR=1900
DGENRE=
TTITLE0=Indian Killed a Woodstock Sugarfoot Rag
TTITLE1=Medley
TTITLE2=Wild Mountain Thyme
TTITLE3=Orange Blossom Special
TTITLE4=Nothing Was Delivered
TTITLE5=Rose in Spanish Harlem
TTITLE6=Top Heavy
TTITLE7=Cannon in D Major
EXTD=
EXTT0=
EXTT1=
EXTT2=
EXTT3=
EXTT4=
EXTT5=
EXTT6=
EXTT7=
PLAYORDER=
